<svg height="28" width="111" xmlns="http://www.w3.org/2000/svg"><path clip-rule="evenodd" d="M22.56 4.39c.07.13.2-1.87.4-2s.18-.98.18-.98L24.16 0s1.05.63 1.2.8c.1.11.83.63 1.12 1.63.13.45.33.41.72.37.21-.02.56 0 .56 0l.4 1.2s-.53 1.33-1.2 1.6-1.2.87-1.2.8-.51 1.32-.57 1.5c-.33.92-.13 1.39-.13 1.39s.11 1.31.31 1.5c.23.22 1.21.76 1.01.7-.2-.07-1.48 1.03-1.41 1.3s-.93 1.53-.8 2 .4 1.13 0 1.2-2.4.8-2.4.8-1.66.27-1.6.4c.07.13.13 1.8 0 2s-.83.59-.8.8c.1.6.13.8.4 1.2s0 1.47 0 1.6-.27.27-.4.4-2 .8-2 .8l-.8 1.6s0 .2-.8.8-1.13.87-1.2 1.2-1.73.47-1.6.4-.17-.56-.13-1.09c.01-.1-.13-.34-.13-.34s-.34-.36-.54-.96-.4-.67-.4-1.2-.07-1-.4-.8-1.47.4-1.6.8-.89.91-1.2 1.2c-.59.56-.95 1.28-1.2 1.2s-1.2-.53-1.2-.4c0 .15-.8.55-.8.4 0-.13-.4-.8-.4-.8l-.8-.4-.4-.4-.92 1.12L1.77 28s-.2-.26-.4-.8c-.33-.92-.21-1.82-.21-1.82l-.59-.58-.4-.4s1.27-.67 1.6-.8 2.33-.53 2.4-.8 1.2-1.2 1.2-1.2l1.2-.4c.2-.07 1.73.33 2 0s.8-1.27 1.6-2 1.93-.8 2-1.2.13-.93.8-1.6.87-1.4 1.2-1.6.53-1.07.4-1.2.4-2.4.4-2.4 1.6-1.27 2.4-1.6 1.8-.13 2.4-.8 1.67-1.07 2-1.6c.24-.39.83-1.06.8-1.2-.14-.54-.07-1.74-.01-1.61zM7.79 6.79s1.2-.8 1.2-1.2.73-.87.8-1.2.8-1.2.8-1.2.33 1.66 0 2.4c-.33.73-.47 1.6-.4 1.6s.4.27.4.4 1.13-.6 1.2-.4 0 1.2 0 1.2-.67.07-.8.4-.27 1.13-.8 1.6-1.33 1.33-1.6 1.2-1.2-.4-1.2-.4.73-.8.8-1.2.2-.33.4-.8-.07-1.33 0-1.2-.8.8-.8.8-.2.4-.4 0 .53-1.2.4-1.2c-.14 0 0-.8 0-.8z" fill="#095ba5" fill-rule="evenodd"/><g fill="#898989"><path d="M49.28 20.91c-.74-.74-1.5-1.52-2.35-2.71v6.46h-1.77v-6.35c-1.4 1.93-2.76 3.15-4.39 4.46l-.97-1.66c1.93-1.29 3.75-2.88 4.99-4.81h-4.35v-1.68h4.71v-2.41h-4.94v-1.66h2.76c0-.53-.34-2.58-.67-3.54h-1.68V5.37h4.53V3.34h1.77v2.02h4.07v1.66h-1.24c-.07.34-.44 2.46-.76 3.54h2.32v1.66h-4.39v2.41h3.98v1.68h-3.75c.39.55 1.31 1.68 3.1 2.99zm-1.95-10.35c.3-1.01.6-2.64.69-3.54H44c.37 1.31.64 3.29.67 3.54zm6.71.05h7.38v1.75h-2.48v12.3h-1.88v-12.3h-3.01v1.17c0 6.97-2.18 9.77-3.17 11.06l-1.7-1.22c1.06-1.26 3.01-3.61 3.01-9.86V4.97c2.83.02 5.43-.46 8.05-1.54l.96 1.77c-1.84.69-3.77 1.22-7.15 1.47v3.94zM63.89 23.05c1.52-2.32 2.67-5.52 3.13-7.68l1.66.83c-.62 2.44-1.63 5.86-3.2 8.23zm3.54-9.52c-1.29-1.08-2.09-1.59-3.43-2.28l1-1.52c1.31.6 2.39 1.26 3.56 2.25zm1.11-6.21A15.421 15.421 0 0065 5.02l1.08-1.49c.76.32 1.89.83 3.63 2.12zm.23 10.14c.74-.48 3.15-2.09 4.55-4.74h-2.48V4.19c3.1-.16 4.85-.62 5.73-.87l.67 1.56c-1.93.53-3.86.67-4.55.71v2.07h4.16v1.43h-4.16v2.07h10.14V9.09h-4.09V7.67h4.09V5.69h-4.69V4.1h6.53v8.62h-9.41c-.23.55-.46 1.08-1.01 1.86h10.81c-.02 3.47-.05 7.57-.83 9.11-.39.78-1.31.99-2.14.99h-3.24l-.39-1.86 3.29.02c1.04 0 1.38.02 1.52-6.6H72.93c-1.22 1.4-2.21 2.09-2.94 2.64zm.18 5.7c1.59-2.21 2.18-4.46 2.39-5.27l1.61.39c-.16.67-.78 3.56-2.44 5.96zm5.13.23a29.381 29.381 0 000-5.33h1.52c.07.74.18 1.75.18 3.27 0 .83-.05 1.43-.07 1.98zm3.31-1.08c-.02-2.07-.21-3.2-.51-4.35l1.47-.25c.53 1.89.64 3.68.67 4.3zm3.33-1.1c-.14-.76-.37-2.09-1.01-3.75l1.36-.37c.51 1.13.74 1.86 1.15 3.59zM88.16 22.82c2.02-.78 3.93-1.84 5.68-3.98l1.59.9c-1.68 2.16-4.12 3.75-6.09 4.67zm11.98 1.84h-1.95v-6.62h-8.81V4.58h1.88v11.8h18.51v1.66h-9.64v6.62zm7.81-20.65v10.83H93.51V4.01zm-1.83 1.49H95.33v1.72h10.79zm0 3.11H95.33v1.61h10.79zm0 3.01H95.33v1.72h10.79zm-1.75 7.15c1.33 1.43 3.33 2.99 5.7 3.96l-1.15 1.61c-2.09-1.01-4.46-2.69-6.07-4.6z"/></g></svg>